# xmcd CD database file
#
# Track frame offsets:
#	150
#	18937
#	37075
#	59640
#	81655
#	106300
#	127705
#	150205
#	171235
#	193710
#	213582
#
# Disc length: 3114 seconds
#
# Revision: 2
# Processed by: cddbd v1.5.2PL0 Copyright (c) Steve Scherf et al.
# Submitted via: CDex 1.70beta2
#
DISCID=920c280b
DTITLE=Be-B - Singles
DYEAR=1995
DGENRE=JPop
TTITLE0=真夏の愛 YAI YAI! (Album Version)
TTITLE1=憧夢
TTITLE2=It’s All Right
TTITLE3=Jumping
TTITLE4=世界で一番悲しい夜を越えて
TTITLE5=Angel Anniversary
TTITLE6=If・・・ (Album Version)
TTITLE7=なんで!? (Album Version)
TTITLE8=NEXT
TTITLE9=夏の足音
TTITLE10=憧夢～風に向かって～ (Stuidio Live Version)
EXTD=YEAR: 1995
EXTT0=
EXTT1=
EXTT2=
EXTT3=
EXTT4=
EXTT5=
EXTT6=
EXTT7=
EXTT8=
EXTT9=
EXTT10=
PLAYORDER=
